<svg width="9" height="10" viewBox="0 0 9 10" fill="none" xmlns="http://www.w3.org/2000/svg">
<path d="M0.411133 3.9397H7.74383M0.411133 3.9397V7.97278C0.411133 8.48612 0.411133 8.74265 0.511035 8.93872C0.598911 9.11119 0.73903 9.25155 0.911497 9.33943C1.10737 9.43923 1.36392 9.43923 1.87626 9.43923H6.27871C6.79104 9.43923 7.04722 9.43923 7.2431 9.33943C7.41557 9.25155 7.55615 9.11119 7.64403 8.93872C7.74383 8.74284 7.74383 8.48666 7.74383 7.97433V3.9397M0.411133 3.9397V3.57316C0.411133 3.05982 0.411133 2.80296 0.511035 2.60689C0.598911 2.43443 0.73903 2.29431 0.911497 2.20643C1.10757 2.10653 1.36443 2.10653 1.87776 2.10653H2.24431M7.74383 3.9397V3.57165C7.74383 3.05932 7.74383 2.80277 7.64403 2.60689C7.55615 2.43443 7.41557 2.29431 7.2431 2.20643C7.04703 2.10653 6.79072 2.10653 6.27738 2.10653H5.91066M5.91066 1.18994V2.10653M5.91066 2.10653H2.24431M2.24431 1.18994V2.10653" stroke="white" stroke-width="0.698203" stroke-linecap="round" stroke-linejoin="round"/>
</svg>
