<svg width="23" height="23" viewBox="0 0 23 23" fill="none" xmlns="http://www.w3.org/2000/svg">
<path d="M3.87555 7.68119H18.5104M3.87555 7.68119V15.7305C3.87555 16.7551 3.87555 17.2671 4.07494 17.6584C4.25032 18.0026 4.52998 18.2828 4.87419 18.4581C5.26513 18.6573 5.77716 18.6573 6.7997 18.6573H15.5863C16.6088 18.6573 17.1201 18.6573 17.511 18.4581C17.8552 18.2828 18.1358 18.0026 18.3112 17.6584C18.5104 17.2675 18.5104 16.7562 18.5104 15.7336V7.68119M3.87555 7.68119V6.94963C3.87555 5.92509 3.87555 5.41244 4.07494 5.02112C4.25032 4.6769 4.52998 4.39725 4.87419 4.22186C5.26551 4.02247 5.77816 4.02247 6.8027 4.02247H7.53427M18.5104 7.68119V6.94662C18.5104 5.92409 18.5104 5.41206 18.3112 5.02112C18.1358 4.6769 17.8552 4.39725 17.511 4.22186C17.1197 4.02247 16.6082 4.02247 15.5836 4.02247H14.8517M14.8517 2.19312V4.02247M14.8517 4.02247H7.53427M7.53427 2.19312V4.02247" stroke="#24585F" stroke-width="1.3935" stroke-linecap="round" stroke-linejoin="round"/>
</svg>
