<svg width="14" height="14" viewBox="0 0 14 14" fill="none" xmlns="http://www.w3.org/2000/svg">
<path d="M5.24836 1.79934C5.04865 1.30005 4.56507 0.972656 4.02732 0.972656H2.21854C1.53046 0.972656 0.972656 1.53032 0.972656 2.21841C0.972656 8.06713 5.71412 12.8086 11.5628 12.8086C12.2509 12.8086 12.8086 12.2507 12.8086 11.5627L12.8089 9.75358C12.8089 9.21583 12.4816 8.73233 11.9823 8.53262L10.2487 7.83943C9.8002 7.66003 9.28956 7.74077 8.91848 8.05001L8.47106 8.42317C7.94854 8.8586 7.17971 8.82397 6.69875 8.34302L5.4389 7.08201C4.95794 6.60105 4.9224 5.83285 5.35784 5.31032L5.73092 4.86293C6.04016 4.49185 6.12161 3.98106 5.94221 3.53257L5.24836 1.79934Z" stroke="#5C5C5C" stroke-width="1.00177" stroke-linecap="round" stroke-linejoin="round"/>
</svg>
