<svg width="16" height="16" viewBox="0 0 16 16" fill="none" xmlns="http://www.w3.org/2000/svg">
<g opacity="0.5" clip-path="url(#clip0_1_3835)">
<path d="M1.11426 4.85985V8.10444C1.11426 10.4046 2.98616 12.2761 5.28692 12.2761H5.69978C7.31506 12.2761 8.83367 12.905 9.97582 14.0469L10.4107 14.4817C10.4851 14.5561 10.5836 14.5973 10.6877 14.5973C10.9054 14.5973 11.0825 14.4205 11.0825 14.2036V12.2698C13.2759 12.149 15.0233 10.327 15.0233 8.10444V4.85985C15.0233 2.55967 13.1514 0.688232 10.8507 0.688232H5.28715C2.98616 0.688232 1.11426 2.55967 1.11426 4.85985ZM10.155 6.48214C10.155 5.97089 10.5709 5.55512 11.0823 5.55512C11.5937 5.55512 12.0095 5.97089 12.0095 6.48214C12.0095 6.9934 11.5937 7.40917 11.0823 7.40917C10.5709 7.40917 10.155 6.9934 10.155 6.48214ZM7.14143 6.48214C7.14143 5.97089 7.5573 5.55512 8.06869 5.55512C8.58007 5.55512 8.99594 5.97089 8.99594 6.48214C8.99594 6.9934 8.58007 7.40917 8.06869 7.40917C7.5573 7.40917 7.14143 6.9934 7.14143 6.48214ZM4.12784 6.48214C4.12784 5.97089 4.54372 5.55512 5.0551 5.55512C5.56648 5.55512 5.98236 5.97089 5.98236 6.48214C5.98236 6.9934 5.56648 7.40917 5.0551 7.40917C4.54372 7.40917 4.12784 6.9934 4.12784 6.48214Z" fill="#6A6A6A"/>
</g>
<defs>
<clipPath id="clip0_1_3835">
<rect width="15" height="15" fill="white" transform="translate(0.570312 0.142822)"/>
</clipPath>
</defs>
</svg>
