<svg width="22" height="20" viewBox="0 0 22 20" fill="none" xmlns="http://www.w3.org/2000/svg">
<path d="M11.4259 10.8955H5.45801C5.23152 10.8955 5.04785 11.0704 5.04785 11.2861C5.04785 11.5019 5.23152 11.6768 5.45801 11.6768H11.426C11.6525 11.6768 11.8361 11.5019 11.8361 11.2861C11.8361 11.0704 11.6525 10.8955 11.4259 10.8955Z" fill="#84818A"/>
<path d="M11.4259 12.6208H5.45801C5.23152 12.6208 5.04785 12.7957 5.04785 13.0115C5.04785 13.2272 5.23152 13.4021 5.45801 13.4021H11.426C11.6525 13.4021 11.8361 13.2272 11.8361 13.0115C11.8361 12.7957 11.6525 12.6208 11.4259 12.6208Z" fill="#84818A"/>
<path d="M11.4259 14.3462H5.45801C5.23152 14.3462 5.04785 14.5211 5.04785 14.7368C5.04785 14.9526 5.23152 15.1274 5.45801 15.1274H11.426C11.6525 15.1274 11.8361 14.9526 11.8361 14.7368C11.8361 14.5211 11.6525 14.3462 11.4259 14.3462Z" fill="#84818A"/>
<path d="M15.2353 0C11.9277 0 9.23685 2.56266 9.23685 5.71262C9.23685 6.26035 9.31822 6.79031 9.47006 7.29215H2.18827C1.47324 7.29215 0.891602 7.84613 0.891602 8.52707V17.5943C0.891602 18.2752 1.47329 18.8292 2.18827 18.8292H6.42646V19.6094C6.42646 19.7548 6.51132 19.8883 6.64675 19.9556C6.70643 19.9854 6.7716 20 6.83657 20C6.91893 20 7.00092 19.9764 7.07097 19.93L8.73112 18.8291H14.6957C15.4107 18.8291 15.9924 18.2752 15.9924 17.5942V11.3802C16.3903 11.3325 16.7811 11.247 17.1611 11.1243L18.0705 11.7273C18.1406 11.7738 18.2225 11.7974 18.3049 11.7974C18.3698 11.7974 18.4351 11.7827 18.4947 11.753C18.6302 11.6857 18.715 11.5522 18.715 11.4068V10.3663C20.2963 9.2932 21.2337 7.56922 21.2337 5.71258C21.2336 2.56266 18.5428 0 15.2353 0ZM14.6957 18.0479H8.60238C8.51858 18.0479 8.43679 18.0723 8.36801 18.1179L7.24677 18.8614V18.4385C7.24677 18.2228 7.0631 18.0479 6.83661 18.0479H2.18827C1.92561 18.0479 1.71191 17.8444 1.71191 17.5942V8.52703C1.71191 8.27688 1.92561 8.07336 2.18827 8.07336H9.77333C10.7102 10.0315 12.7749 11.4011 15.172 11.4248V17.5942C15.172 17.8444 14.9583 18.0479 14.6957 18.0479ZM18.0792 9.83426C17.964 9.90652 17.8947 10.0291 17.8947 10.1605V10.6588L17.456 10.3679C17.3863 10.3217 17.3043 10.2979 17.2216 10.2979C17.1725 10.2979 17.123 10.3063 17.0758 10.3234C16.4887 10.5361 15.8695 10.6439 15.2353 10.6439C12.38 10.6439 10.0572 8.43172 10.0572 5.71258C10.0572 2.99344 12.38 0.78125 15.2353 0.78125C18.0904 0.78125 20.4133 2.99344 20.4133 5.71262C20.4133 7.37684 19.5408 8.91762 18.0792 9.83426Z" fill="#84818A"/>
<path d="M15.2824 7.77075H15.1877C14.5611 7.77075 14.0513 8.2563 14.0513 8.85356C14.0513 9.45036 14.5611 9.93587 15.1877 9.93587H15.2824C15.909 9.93587 16.4188 9.45036 16.4188 8.8531C16.4188 8.25626 15.909 7.77075 15.2824 7.77075ZM15.2824 9.15458H15.1877C15.0134 9.15458 14.8716 9.0195 14.8716 8.85306C14.8716 8.68704 15.0134 8.55196 15.1877 8.55196H15.2824C15.4567 8.55196 15.5985 8.68704 15.5985 8.85353C15.5985 9.01954 15.4567 9.15458 15.2824 9.15458Z" fill="#84818A"/>
<path d="M15.2821 1.47241H15.1879C14.5612 1.47241 14.0513 1.95808 14.0513 2.55499V5.97886C14.0513 6.57577 14.5612 7.0614 15.1879 7.0614H15.2821C15.9089 7.0614 16.4188 6.57577 16.4188 5.97886V2.55499C16.4188 1.95808 15.9089 1.47241 15.2821 1.47241ZM15.5985 5.9789C15.5985 6.14503 15.4566 6.28019 15.2821 6.28019H15.1879C15.0135 6.28019 14.8716 6.14503 14.8716 5.9789V2.55499C14.8716 2.38886 15.0135 2.25366 15.1879 2.25366H15.2821C15.4566 2.25366 15.5985 2.38882 15.5985 2.55499V5.9789Z" fill="#84818A"/>
</svg>
