<svg width="13" height="14" viewBox="0 0 13 14" fill="none" xmlns="http://www.w3.org/2000/svg">
<path d="M4.82596 5.22418V3.73949C4.82596 3.14552 4.82596 2.84831 4.93889 2.62144C5.03822 2.42188 5.1966 2.25976 5.39155 2.15808C5.61317 2.04248 5.90351 2.04248 6.48376 2.04248H9.38474C9.96499 2.04248 10.255 2.04248 10.4766 2.15808C10.6715 2.25976 10.8302 2.42188 10.9295 2.62144C11.0425 2.84831 11.0425 3.1453 11.0425 3.73927V6.70888C11.0425 7.30285 11.0425 7.59984 10.9295 7.8267C10.8302 8.02626 10.6714 8.18873 10.4764 8.29041C10.255 8.40589 9.96536 8.40589 9.38624 8.40589H7.93415M4.82596 5.22418H3.37558C2.79533 5.22418 2.50498 5.22418 2.28336 5.33978C2.08841 5.44146 1.93003 5.60359 1.8307 5.80315C1.71777 6.03001 1.71777 6.32722 1.71777 6.9212V9.89079C1.71777 10.4848 1.71777 10.7816 1.8307 11.0085C1.93003 11.208 2.08841 11.3704 2.28336 11.4721C2.50477 11.5876 2.79476 11.5876 3.37387 11.5876H6.27829C6.85741 11.5876 7.14699 11.5876 7.3684 11.4721C7.56335 11.3704 7.72201 11.2079 7.82134 11.0083C7.93415 10.7817 7.93415 10.4851 7.93415 9.89232V8.40589M4.82596 5.22418H6.27655C6.8568 5.22418 7.14677 5.22418 7.3684 5.33978C7.56335 5.44146 7.72201 5.60359 7.82134 5.80315C7.93415 6.0298 7.93415 6.32665 7.93415 6.91947L7.93415 8.40589" stroke="#5C5C5C" stroke-width="0.807879" stroke-linecap="round" stroke-linejoin="round"/>
</svg>
