<svg width="68" height="78" viewBox="0 0 68 78" fill="none" xmlns="http://www.w3.org/2000/svg">
<path d="M33.9994 44.4991C39.0267 44.4991 43.6732 43.0823 47.3904 40.6753C50.2697 38.8319 54.0174 39.1366 56.5463 41.437C63.5693 47.805 67.5607 56.839 67.5455 66.33V70.3976C67.5455 74.6023 64.133 77.9995 59.9283 77.9995H8.07049C3.8658 77.9995 0.453298 74.6023 0.453298 70.3976V66.33C0.422829 56.8542 4.41424 47.805 11.4373 41.4523C13.9662 39.1519 17.7291 38.8472 20.5931 40.6905C24.3256 43.0823 28.9568 44.4991 33.9994 44.4991Z" fill="#3C6F76"/>
<path d="M34.0008 37.7203C44.417 37.7203 52.8609 29.2763 52.8609 18.8602C52.8609 8.44398 44.417 0 34.0008 0C23.5846 0 15.1406 8.44398 15.1406 18.8602C15.1406 29.2763 23.5846 37.7203 34.0008 37.7203Z" fill="#3C6F76"/>
</svg>
