<svg width="12" height="14" viewBox="0 0 12 14" fill="none" xmlns="http://www.w3.org/2000/svg">
<path d="M2.28923 2.94531V10.7044C2.28923 11.441 2.28923 11.809 2.43256 12.0903C2.55865 12.3377 2.75969 12.5393 3.00714 12.6654C3.28818 12.8086 3.65627 12.8086 4.39136 12.8086H8.07772C8.8128 12.8086 9.18036 12.8086 9.4614 12.6654C9.70886 12.5393 9.91057 12.3377 10.0367 12.0903C10.1798 11.8092 10.1798 11.4415 10.1798 10.7065V2.94531M2.28923 2.94531H3.60433M2.28923 2.94531H0.974121M3.60433 2.94531H8.86475M3.60433 2.94531C3.60433 2.33255 3.60433 2.02632 3.70444 1.78464C3.83791 1.46241 4.09376 1.20624 4.416 1.07276C4.65767 0.972656 4.96422 0.972656 5.57699 0.972656H6.89209C7.50485 0.972656 7.81123 0.972656 8.05291 1.07276C8.37515 1.20624 8.6311 1.46241 8.76457 1.78464C8.86468 2.02632 8.86475 2.33255 8.86475 2.94531M8.86475 2.94531H10.1798M10.1798 2.94531H11.495" stroke="#5C5C5C" stroke-width="1.00177" stroke-linecap="round" stroke-linejoin="round"/>
</svg>
