<svg width="16" height="15" viewBox="0 0 16 15" fill="none" xmlns="http://www.w3.org/2000/svg">
<g opacity="0.5" clip-path="url(#clip0_1_3866)">
<path d="M4.79884 0.938442C4.79884 0.710741 4.70853 0.492366 4.54779 0.331356C4.38704 0.170347 4.16902 0.0798941 3.94169 0.0798941H1.58712C1.35979 0.0798941 1.14178 0.170347 0.981032 0.331356C0.820286 0.492366 0.72998 0.710741 0.72998 0.938442V7.66431C0.72998 7.89201 0.820286 8.11038 0.981032 8.27139C1.14178 8.4324 1.35979 8.52285 1.58712 8.52285H3.93998C4.16731 8.52285 4.38533 8.4324 4.54607 8.27139C4.70682 8.11038 4.79712 7.89201 4.79712 7.66431L4.79884 0.938442ZM14.8223 6.20821C14.9946 6.0708 15.1248 5.88748 15.1978 5.67929C15.2709 5.4711 15.2838 5.2465 15.2351 5.0313C15.1864 4.81609 15.078 4.61902 14.9225 4.46271C14.767 4.30641 14.5707 4.19722 14.356 4.14769C14.5275 4.01025 14.6569 3.82713 14.7293 3.61936C14.8017 3.4116 14.8141 3.1876 14.7652 2.97308C14.7162 2.75856 14.6079 2.56222 14.4526 2.40658C14.2972 2.25094 14.1013 2.14232 13.8871 2.09319C14.0761 1.94168 14.2136 1.73514 14.2804 1.50208C14.3472 1.26901 14.3401 1.02091 14.2602 0.792035C14.1802 0.563156 14.0313 0.364785 13.834 0.224307C13.6366 0.083828 13.4006 0.00817013 13.1586 0.00777626L6.52255 0.0816116C6.29522 0.0816116 6.07721 0.172065 5.91646 0.333074C5.75572 0.494082 5.66541 0.712459 5.66541 0.94016V7.66431C5.66541 8.7332 9.05369 10.683 9.23455 11.7398C9.35112 12.4155 9.19769 14.1506 9.66312 14.1506C10.4543 14.1506 11.4691 13.8467 11.4691 12.0901C11.4691 10.5396 10.4543 8.52457 10.4543 8.52457H14.5591C14.847 8.52571 15.1252 8.42043 15.3404 8.22889C15.5556 8.03735 15.6926 7.77302 15.7253 7.48654C15.758 7.20006 15.6841 6.91156 15.5176 6.67631C15.3511 6.44107 15.1038 6.27561 14.8231 6.21164L14.8223 6.20821Z" fill="#373737"/>
</g>
<defs>
<clipPath id="clip0_1_3866">
<rect width="15" height="14.1429" fill="white" transform="matrix(1 0 0 -1 0.710938 14.1428)"/>
</clipPath>
</defs>
</svg>
