<svg width="4" height="11" viewBox="0 0 4 11" fill="none" xmlns="http://www.w3.org/2000/svg">
<path d="M1.23315 9.83602C1.23315 10.1992 1.52755 10.4936 1.89071 10.4936C2.25386 10.4936 2.54826 10.1992 2.54826 9.83602C2.54826 9.47286 2.25386 9.17847 1.89071 9.17847C1.52755 9.17847 1.23315 9.47286 1.23315 9.83602Z" stroke="white" stroke-width="1.00177" stroke-linecap="round" stroke-linejoin="round"/>
<path d="M1.23315 5.89071C1.23315 6.25386 1.52755 6.54826 1.89071 6.54826C2.25386 6.54826 2.54826 6.25386 2.54826 5.89071C2.54826 5.52755 2.25386 5.23315 1.89071 5.23315C1.52755 5.23315 1.23315 5.52755 1.23315 5.89071Z" stroke="white" stroke-width="1.00177" stroke-linecap="round" stroke-linejoin="round"/>
<path d="M1.23315 1.94539C1.23315 2.30855 1.52755 2.60295 1.89071 2.60295C2.25386 2.60295 2.54826 2.30855 2.54826 1.94539C2.54826 1.58224 2.25386 1.28784 1.89071 1.28784C1.52755 1.28784 1.23315 1.58224 1.23315 1.94539Z" stroke="white" stroke-width="1.00177" stroke-linecap="round" stroke-linejoin="round"/>
</svg>
