<svg width="21" height="21" viewBox="0 0 21 21" fill="none" xmlns="http://www.w3.org/2000/svg">
<path d="M14.3263 2.15039H7.64628C4.30625 2.15039 2.63623 3.82041 2.63623 7.16044V18.0156C2.63623 18.4748 3.01198 18.8506 3.47124 18.8506H14.3263C17.6664 18.8506 19.3364 17.1805 19.3364 13.8405V7.16044C19.3364 3.82041 17.6664 2.15039 14.3263 2.15039Z" stroke="white" stroke-width="1.25251" stroke-linecap="round" stroke-linejoin="round"/>
<path d="M11.7521 7.02681L7.41842 11.3605C7.25142 11.5275 7.09277 11.8532 7.05937 12.087L6.82557 13.7403C6.74207 14.3415 7.15957 14.759 7.76078 14.6755L9.41408 14.4417C9.64788 14.4083 9.97355 14.2496 10.1406 14.0826L14.4743 9.74893C15.2174 9.00578 15.5765 8.13737 14.4743 7.03516C13.372 5.9246 12.5036 6.2753 11.7521 7.02681Z" stroke="white" stroke-width="1.25251" stroke-miterlimit="10" stroke-linecap="round" stroke-linejoin="round"/>
<path d="M11.1333 7.64502C11.5007 8.95598 12.5278 9.99139 13.8471 10.3588" stroke="white" stroke-width="1.25251" stroke-miterlimit="10" stroke-linecap="round" stroke-linejoin="round"/>
</svg>
