<svg width="11" height="11" viewBox="0 0 11 11" fill="none" xmlns="http://www.w3.org/2000/svg">
<path d="M0.780273 10.0699H9.92018M0.780273 10.0699V7.78497L5.35023 3.21502M0.780273 10.0699L3.06525 10.0699L7.6352 5.49999M5.35023 3.21502L6.98891 1.57631L6.9899 1.57534C7.21547 1.34977 7.32846 1.23678 7.45871 1.19446C7.57344 1.15718 7.69703 1.15718 7.81176 1.19446C7.94192 1.23675 8.05478 1.34961 8.28003 1.57486L9.27388 2.56871C9.5001 2.79493 9.61326 2.9081 9.65564 3.03853C9.69292 3.15326 9.69291 3.27685 9.65563 3.39158C9.61328 3.52192 9.50029 3.63491 9.27439 3.86081L9.27389 3.86129L7.6352 5.49999M5.35023 3.21502L7.6352 5.49999" stroke="white" stroke-width="0.870281" stroke-linecap="round" stroke-linejoin="round"/>
</svg>
