<svg width="13" height="12" viewBox="0 0 13 12" fill="none" xmlns="http://www.w3.org/2000/svg">
<path d="M1.19287 11.151H11.7137M1.19287 11.151V8.52078L6.45329 3.26036M1.19287 11.151L3.82308 11.151L9.08349 5.89056M6.45329 3.26036L8.33956 1.37407L8.34069 1.37295C8.60035 1.1133 8.73041 0.983239 8.88033 0.934527C9.0124 0.891616 9.15467 0.891616 9.28673 0.934527C9.43655 0.983205 9.56646 1.11312 9.82575 1.3724L10.9698 2.51641C11.2302 2.77681 11.3604 2.90707 11.4092 3.05721C11.4521 3.18928 11.4521 3.33153 11.4092 3.4636C11.3604 3.61363 11.2304 3.74369 10.9703 4.00372L10.9698 4.00428L9.08349 5.89056M6.45329 3.26036L9.08349 5.89056" stroke="#5C5C5C" stroke-width="1.00177" stroke-linecap="round" stroke-linejoin="round"/>
</svg>
