<svg width="14" height="15" viewBox="0 0 14 15" fill="none" xmlns="http://www.w3.org/2000/svg">
<path d="M11.4202 3.84398C11.4202 3.52405 11.42 3.36397 11.3577 3.24177C11.3029 3.13429 11.2159 3.04696 11.1084 2.99219C10.9862 2.92993 10.8259 2.92993 10.506 2.92993H3.19404C2.87411 2.92993 2.71431 2.92993 2.59211 2.99219C2.48463 3.04696 2.3973 3.13429 2.34254 3.24177C2.28027 3.36397 2.28027 3.52405 2.28027 3.84398V4.26513C2.28027 4.40485 2.28027 4.47477 2.29606 4.54051C2.31005 4.5988 2.33319 4.65448 2.36451 4.70559C2.39983 4.76322 2.44931 4.8127 2.54804 4.91143L5.44011 7.8035C5.5389 7.90229 5.58803 7.95142 5.62335 8.00906C5.65467 8.06018 5.67813 8.11604 5.69212 8.17433C5.70774 8.23941 5.70774 8.30849 5.70774 8.44538V11.1621C5.70774 11.6518 5.70774 11.8968 5.81087 12.0443C5.90093 12.173 6.03986 12.2589 6.1953 12.2819C6.37332 12.3082 6.59243 12.1988 7.03041 11.9798L7.48741 11.7513C7.67081 11.6596 7.76229 11.6136 7.82929 11.5452C7.88854 11.4847 7.93387 11.412 7.96148 11.332C7.9927 11.2415 7.99272 11.1387 7.99272 10.9336V8.44963C7.99272 8.30991 7.99272 8.24008 8.0085 8.17433C8.02249 8.11604 8.04563 8.06018 8.07695 8.00906C8.11204 7.9518 8.16104 7.9028 8.25852 7.80532L8.26049 7.8035L11.1525 4.91143C11.2513 4.81264 11.3005 4.76323 11.3358 4.70559C11.3671 4.65448 11.3906 4.5988 11.4046 4.54051C11.4202 4.47544 11.4202 4.40628 11.4202 4.26938V3.84398Z" stroke="white" stroke-width="0.870281" stroke-linecap="round" stroke-linejoin="round"/>
</svg>
