<svg width="13" height="9" viewBox="0 0 13 9" fill="none" xmlns="http://www.w3.org/2000/svg">
<path d="M7.64257 6.21373H11.6413M1.35889 6.21373H2.50138M2.50138 6.21373C2.50138 7.00245 3.14076 7.64184 3.92949 7.64184C4.71821 7.64184 5.3576 7.00245 5.3576 6.21373C5.3576 5.42501 4.71821 4.78562 3.92949 4.78562C3.14076 4.78562 2.50138 5.42501 2.50138 6.21373ZM11.07 2.78626H11.6413M1.35889 2.78626H5.3576M9.07068 4.21438C8.28196 4.21438 7.64257 3.57499 7.64257 2.78626C7.64257 1.99754 8.28196 1.35815 9.07068 1.35815C9.85941 1.35815 10.4988 1.99754 10.4988 2.78626C10.4988 3.57499 9.85941 4.21438 9.07068 4.21438Z" stroke="white" stroke-width="0.870281" stroke-linecap="round" stroke-linejoin="round"/>
</svg>
