<svg width="16" height="16" viewBox="0 0 16 16" fill="none" xmlns="http://www.w3.org/2000/svg">
<path d="M3.2876 6.52479C3.2876 9.71512 6.07856 12.3534 7.31391 13.3649C7.49071 13.5096 7.58017 13.5829 7.71207 13.62C7.81478 13.6489 7.96595 13.6489 8.06866 13.62C8.20081 13.5828 8.28964 13.5103 8.4671 13.365C9.70246 12.3535 12.4933 9.71541 12.4933 6.52508C12.4933 5.31774 12.0084 4.15971 11.1452 3.30599C10.2819 2.45227 9.11127 1.97266 7.89052 1.97266C6.66976 1.97266 5.49895 2.45234 4.63575 3.30606C3.77254 4.15978 3.2876 5.31745 3.2876 6.52479Z" stroke="#5C5C5C" stroke-width="1.00177" stroke-linecap="round" stroke-linejoin="round"/>
<path d="M6.57536 5.91797C6.57536 6.64428 7.16415 7.23307 7.89046 7.23307C8.61677 7.23307 9.20557 6.64428 9.20557 5.91797C9.20557 5.19166 8.61677 4.60286 7.89046 4.60286C7.16415 4.60286 6.57536 5.19166 6.57536 5.91797Z" stroke="#5C5C5C" stroke-width="1.00177" stroke-linecap="round" stroke-linejoin="round"/>
</svg>
