<svg width="17" height="16" viewBox="0 0 17 16" fill="none" xmlns="http://www.w3.org/2000/svg">
<g clip-path="url(#clip0_54_3482)">
<path fill-rule="evenodd" clip-rule="evenodd" d="M5.50691 2.37004C4.76757 2.79684 4.11953 3.36508 3.59979 4.04232C3.08006 4.71956 2.69881 5.49254 2.4778 6.31713C2.03147 7.98245 2.26496 9.75687 3.12691 11.25C3.98886 12.7432 5.40867 13.8328 7.074 14.2791C8.73932 14.7254 10.5137 14.492 12.0069 13.63C12.1785 13.5386 12.3789 13.5174 12.5658 13.5709C12.7527 13.6244 12.9115 13.7484 13.0088 13.9168C13.1061 14.0851 13.1342 14.2846 13.0872 14.4733C13.0402 14.6619 12.9218 14.825 12.7569 14.928C11.2444 15.8008 9.48786 16.1548 7.75536 15.9359C6.02285 15.7169 4.40957 14.9371 3.16174 13.7155C1.91392 12.4939 1.10009 10.8975 0.844478 9.17003C0.588866 7.44256 0.905511 5.6789 1.74608 4.14823C2.58665 2.61757 3.90498 1.40398 5.49984 0.692706C7.0947 -0.0185698 8.87849 -0.188465 10.5789 0.208952C12.2794 0.606369 13.8031 1.54927 14.9175 2.89373C16.0319 4.2382 16.6758 5.91038 16.7509 7.65504C16.7549 7.68655 16.7569 7.71828 16.7569 7.75004V7.85404C16.7576 7.91737 16.7576 7.98071 16.7569 8.04404V9.25004C16.7573 9.84571 16.5642 10.4253 16.2067 10.9018C15.8493 11.3783 15.3468 11.7259 14.7748 11.8922C14.2028 12.0586 13.5923 12.0347 13.0351 11.8242C12.4779 11.6137 12.004 11.228 11.6849 10.725C11.0502 11.4069 10.1974 11.8459 9.27363 11.9663C8.34984 12.0866 7.41303 11.8807 6.62481 11.3842C5.8366 10.8876 5.24642 10.1315 4.9561 9.24636C4.66579 8.36117 4.69355 7.4024 5.03459 6.53548C5.37563 5.66856 6.00856 4.94787 6.82418 4.49774C7.63981 4.04762 8.58696 3.89629 9.50224 4.06988C10.4175 4.24346 11.2435 4.73107 11.8377 5.44856C12.4318 6.16606 12.757 7.06845 12.7569 8.00004V9.25004C12.7569 9.58156 12.8886 9.8995 13.123 10.1339C13.3574 10.3683 13.6754 10.5 14.0069 10.5C14.3384 10.5 14.6564 10.3683 14.8908 10.1339C15.1252 9.8995 15.2569 9.58156 15.2569 9.25004V7.86704C15.2339 6.73738 14.9168 5.63322 14.3369 4.66348C13.757 3.69374 12.9344 2.89191 11.9501 2.33707C10.9658 1.78224 9.85387 1.49356 8.72399 1.49952C7.59411 1.50547 6.4853 1.80586 5.50691 2.37104V2.37004ZM11.2569 8.00004C11.2569 7.337 10.9935 6.70112 10.5247 6.23227C10.0558 5.76343 9.41995 5.50004 8.75691 5.50004C8.09387 5.50004 7.45798 5.76343 6.98914 6.23227C6.5203 6.70112 6.25691 7.337 6.25691 8.00004C6.25691 8.66308 6.5203 9.29897 6.98914 9.76781C7.45798 10.2366 8.09387 10.5 8.75691 10.5C9.41995 10.5 10.0558 10.2366 10.5247 9.76781C10.9935 9.29897 11.2569 8.66308 11.2569 8.00004Z" fill="#3D3D3D"/>
</g>
<defs>
<clipPath id="clip0_54_3482">
<rect width="16" height="16" fill="white" transform="translate(0.756836)"/>
</clipPath>
</defs>
</svg>
