<svg width="22" height="20" viewBox="0 0 22 20" fill="none" xmlns="http://www.w3.org/2000/svg">
<path d="M20.4545 13.0779C20.4545 10.5397 18.6587 8.3221 16.1265 7.65385C15.9673 4.12087 12.9 1.29321 9.15192 1.29321C5.30224 1.29321 2.17041 4.27591 2.17041 7.94227C2.17041 9.13716 2.50436 10.3006 3.13851 11.3219L2.19608 14.5668L5.60328 13.6693C6.5891 14.2245 7.70116 14.5373 8.84894 14.5844C9.55046 16.9963 11.8791 18.7066 14.5443 18.7066C15.6081 18.7066 16.6426 18.4368 17.5516 17.9241L20.4287 18.682L19.6328 15.9419C20.1712 15.0762 20.4545 14.091 20.4545 13.0779ZM5.77235 12.5661L3.73263 13.1035L4.29689 11.1609L4.16828 10.9693C3.56217 10.0662 3.24174 9.01945 3.24174 7.94227C3.24174 4.83855 5.89301 2.31353 9.15192 2.31353C12.4108 2.31353 15.0621 4.83855 15.0621 7.94227C15.0621 11.046 12.4108 13.571 9.15192 13.571C8.02089 13.571 6.92193 13.2659 5.9735 12.6886L5.77235 12.5661ZM18.8923 17.2188L17.3787 16.82L17.1766 16.9452C16.393 17.43 15.4827 17.6863 14.5443 17.6863C12.4496 17.6863 10.609 16.3964 9.95682 14.5468C13.1644 14.1946 15.7169 11.7637 16.0868 8.70871C18.0288 9.32993 19.3831 11.0829 19.3831 13.0779C19.3831 13.9716 19.1141 14.8386 18.605 15.5848L18.4735 15.7773L18.8923 17.2188Z" fill="#84818A"/>
<path d="M8.62061 10.5312H9.68758V11.5474H8.62061V10.5312Z" fill="#84818A"/>
<path d="M10.2214 6.37902C10.2214 6.66829 10.0981 6.93528 9.87411 7.13091L8.62097 8.22592V9.46882H9.68794V8.67449L10.5945 7.88241C11.0354 7.49711 11.2884 6.94921 11.2884 6.37902C11.2884 5.25563 10.3312 4.3418 9.15446 4.3418C7.97773 4.3418 7.02051 5.25563 7.02051 6.37902H8.08748C8.08748 5.81733 8.56609 5.36041 9.15446 5.36041C9.74282 5.36041 10.2214 5.81733 10.2214 6.37902Z" fill="#84818A"/>
</svg>
