<svg width="16" height="16" viewBox="0 0 16 16" fill="none" xmlns="http://www.w3.org/2000/svg">
<path d="M2.63005 11.1785H2.30127C1.75654 11.1785 1.31494 11.6201 1.31494 12.1648C1.31494 12.7095 1.75654 13.1511 2.30127 13.1511H13.4797C14.0244 13.1511 14.466 12.7095 14.466 12.1648C14.466 11.6201 14.0244 11.1785 13.4797 11.1785H13.1509M2.63005 11.1785H13.1509M2.63005 11.1785V5.39214C2.63005 4.65561 2.63005 4.28707 2.77338 4.00576C2.89947 3.7583 3.10051 3.55726 3.34796 3.43118C3.62928 3.28784 3.99781 3.28784 4.73434 3.28784H11.0468C11.7834 3.28784 12.1511 3.28784 12.4324 3.43118C12.6799 3.55726 12.8816 3.7583 13.0077 4.00576C13.1509 4.2868 13.1509 4.65489 13.1509 5.38998V11.1785" stroke="#5C5C5C" stroke-width="1.00177" stroke-linecap="round" stroke-linejoin="round"/>
</svg>
