<svg width="15" height="15" viewBox="0 0 15 15" fill="none" xmlns="http://www.w3.org/2000/svg">
<path d="M4.05958 13.3368C4.05958 13.5641 3.96927 13.7822 3.80853 13.9429C3.64778 14.1036 3.42977 14.194 3.20244 14.194H0.847866C0.620537 14.194 0.402519 14.1036 0.241774 13.9429C0.0810285 13.7822 -0.00927734 13.5641 -0.00927734 13.3368L-0.00927734 6.62195C-0.00927734 6.39463 0.0810285 6.17661 0.241774 6.01586C0.402519 5.85512 0.620537 5.76481 0.847866 5.76481H3.20072C3.42805 5.76481 3.64607 5.85512 3.80681 6.01586C3.96756 6.17661 4.05787 6.39463 4.05787 6.62195L4.05958 13.3368ZM14.083 8.07567C14.2554 8.21285 14.3856 8.39588 14.4586 8.60372C14.5316 8.81157 14.5445 9.0358 14.4958 9.25066C14.4471 9.46551 14.3388 9.66226 14.1833 9.81831C14.0278 9.97436 13.8314 10.0834 13.6167 10.1328C13.7883 10.27 13.9177 10.4528 13.9901 10.6603C14.0624 10.8677 14.0749 11.0913 14.0259 11.3055C13.977 11.5197 13.8686 11.7157 13.7133 11.8711C13.558 12.0265 13.362 12.1349 13.1479 12.184C13.3369 12.3352 13.4743 12.5414 13.5411 12.7741C13.6079 13.0068 13.6009 13.2545 13.5209 13.483C13.441 13.7115 13.292 13.9095 13.0947 14.0498C12.8974 14.19 12.6614 14.2656 12.4193 14.266L5.78329 14.1922C5.55597 14.1922 5.33795 14.1019 5.1772 13.9412C5.01646 13.7804 4.92615 13.5624 4.92615 13.3351V6.62195C4.92615 5.55481 8.31444 3.60824 8.49529 2.5531C8.61187 1.87853 8.45844 0.14624 8.92387 0.14624C9.71501 0.14624 10.7299 0.449669 10.7299 2.20338C10.7299 3.75138 9.71501 5.7631 9.71501 5.7631H13.8199C14.1077 5.76196 14.3859 5.86707 14.6011 6.05829C14.8163 6.24952 14.9534 6.51342 14.9861 6.79943C15.0188 7.08544 14.9448 7.37347 14.7783 7.60833C14.6118 7.84319 14.3646 8.00837 14.0839 8.07224L14.083 8.07567Z" fill="#898989"/>
</svg>
