<svg width="12" height="14" viewBox="0 0 12 14" fill="none" xmlns="http://www.w3.org/2000/svg">
<path d="M3.97593 4.91797H2.64092C1.90439 4.91797 1.53585 4.91797 1.25453 5.06131C1.00708 5.18739 0.806042 5.38843 0.679959 5.63588C0.536621 5.9172 0.536621 6.28574 0.536621 7.02226V10.7046C0.536621 11.4411 0.536621 11.8092 0.679959 12.0905C0.806042 12.3379 1.00708 12.5393 1.25453 12.6654C1.53558 12.8086 1.90369 12.8086 2.63877 12.8086H8.95532C9.69041 12.8086 10.058 12.8086 10.339 12.6654C10.5865 12.5393 10.7882 12.3379 10.9143 12.0905C11.0575 11.8094 11.0575 11.4419 11.0575 10.7068V7.0201C11.0575 6.28502 11.0575 5.91692 10.9143 5.63588C10.7882 5.38843 10.5865 5.18739 10.339 5.06131C10.0577 4.91797 9.68994 4.91797 8.95342 4.91797H7.61775M3.97593 4.91797H7.61775M3.97593 4.91797C3.89212 4.91797 3.82438 4.85003 3.82438 4.76623V2.94531C3.82438 1.85584 4.70757 0.972656 5.79704 0.972656C6.88651 0.972656 7.76969 1.85584 7.76969 2.94531V4.76623C7.76969 4.85003 7.70156 4.91797 7.61775 4.91797" stroke="#5C5C5C" stroke-width="1.00177" stroke-linecap="round" stroke-linejoin="round"/>
</svg>
