<svg width="121" height="40" viewBox="0 0 121 40" fill="none" xmlns="http://www.w3.org/2000/svg">
<rect x="0.5" y="0.5" width="119.603" height="38.9282" rx="8.5" stroke="#737373" stroke-dasharray="4 4"/>
<path fill-rule="evenodd" clip-rule="evenodd" d="M69.1841 12.0718H52.4194C51.8021 12.0718 51.3018 12.5835 51.3018 13.2146V26.9289C51.3018 27.5601 51.8021 28.0718 52.4194 28.0718H69.1841C69.8014 28.0718 70.3018 27.5601 70.3018 26.9289V13.2146C70.3018 12.5835 69.8014 12.0718 69.1841 12.0718ZM52.4191 26.9288V13.2145H69.1838V26.9288H52.4191ZM54.3752 16.7859C54.3752 17.9694 55.3134 18.9288 56.4708 18.9288C57.6281 18.9288 58.5664 17.9694 58.5664 16.7859C58.5664 15.6025 57.6281 14.6431 56.4708 14.6431C55.3134 14.6431 54.3752 15.6025 54.3752 16.7859ZM57.4484 16.7859C57.4484 17.3381 57.0105 17.7859 56.4704 17.7859C55.9303 17.7859 55.4925 17.3381 55.4925 16.7859C55.4925 16.2336 55.9303 15.7859 56.4704 15.7859C57.0105 15.7859 57.4484 16.2336 57.4484 16.7859ZM55.3275 25.6203C55.1083 25.8424 54.7545 25.8409 54.5372 25.6168C54.3199 25.3926 54.3214 25.0308 54.5406 24.8086L59.1367 20.1493L61.7272 22.4533C61.9601 22.6604 61.9847 23.0214 61.7821 23.2595C61.5796 23.4976 61.2266 23.5228 60.9937 23.3156L59.1864 21.7082L55.3275 25.6203ZM59.5203 25.6187C59.3021 25.8419 58.9482 25.8419 58.73 25.6187C58.5117 25.3956 58.5117 25.0338 58.73 24.8106L66.0848 17.2892L70.1113 20.9019C70.3433 21.11 70.3664 21.4711 70.1628 21.7083C69.9593 21.9455 69.6062 21.9691 69.3742 21.7609L66.1348 18.8544L59.5203 25.6187Z" fill="#737373"/>
<path fill-rule="evenodd" clip-rule="evenodd" d="M69.1841 12.0718H52.4194C51.8021 12.0718 51.3018 12.5835 51.3018 13.2146V26.9289C51.3018 27.5601 51.8021 28.0718 52.4194 28.0718H69.1841C69.8014 28.0718 70.3018 27.5601 70.3018 26.9289V13.2146C70.3018 12.5835 69.8014 12.0718 69.1841 12.0718ZM52.4191 26.9288V13.2145H69.1838V26.9288H52.4191ZM54.3752 16.7859C54.3752 17.9694 55.3134 18.9288 56.4708 18.9288C57.6281 18.9288 58.5664 17.9694 58.5664 16.7859C58.5664 15.6025 57.6281 14.6431 56.4708 14.6431C55.3134 14.6431 54.3752 15.6025 54.3752 16.7859ZM57.4484 16.7859C57.4484 17.3381 57.0105 17.7859 56.4704 17.7859C55.9303 17.7859 55.4925 17.3381 55.4925 16.7859C55.4925 16.2336 55.9303 15.7859 56.4704 15.7859C57.0105 15.7859 57.4484 16.2336 57.4484 16.7859ZM55.3275 25.6203C55.1083 25.8424 54.7545 25.8409 54.5372 25.6168C54.3199 25.3926 54.3214 25.0308 54.5406 24.8086L59.1367 20.1493L61.7272 22.4533C61.9601 22.6604 61.9847 23.0214 61.7821 23.2595C61.5796 23.4976 61.2266 23.5228 60.9937 23.3156L59.1864 21.7082L55.3275 25.6203ZM59.5203 25.6187C59.3021 25.8419 58.9482 25.8419 58.73 25.6187C58.5117 25.3956 58.5117 25.0338 58.73 24.8106L66.0848 17.2892L70.1113 20.9019C70.3433 21.11 70.3664 21.4711 70.1628 21.7083C69.9593 21.9455 69.6062 21.9691 69.3742 21.7609L66.1348 18.8544L59.5203 25.6187Z" fill="#737373"/>
<path d="M69.1841 12.0718H52.4194C51.8021 12.0718 51.3018 12.5835 51.3018 13.2146V26.9289C51.3018 27.5601 51.8021 28.0718 52.4194 28.0718H69.1841C69.8014 28.0718 70.3018 27.5601 70.3018 26.9289V13.2146C70.3018 12.5835 69.8014 12.0718 69.1841 12.0718ZM52.4191 26.9288V13.2145H69.1838V26.9288H52.4191ZM54.3752 16.7859C54.3752 17.9694 55.3134 18.9288 56.4708 18.9288C57.6281 18.9288 58.5664 17.9694 58.5664 16.7859C58.5664 15.6025 57.6281 14.6431 56.4708 14.6431C55.3134 14.6431 54.3752 15.6025 54.3752 16.7859ZM57.4484 16.7859C57.4484 17.3381 57.0105 17.7859 56.4704 17.7859C55.9303 17.7859 55.4925 17.3381 55.4925 16.7859C55.4925 16.2336 55.9303 15.7859 56.4704 15.7859C57.0105 15.7859 57.4484 16.2336 57.4484 16.7859ZM55.3275 25.6203C55.1083 25.8424 54.7545 25.8409 54.5372 25.6168C54.3199 25.3926 54.3214 25.0308 54.5406 24.8086L59.1367 20.1493L61.7272 22.4533C61.9601 22.6604 61.9847 23.0214 61.7821 23.2595C61.5796 23.4976 61.2266 23.5228 60.9937 23.3156L59.1864 21.7082L55.3275 25.6203ZM59.5203 25.6187C59.3021 25.8419 58.9482 25.8419 58.73 25.6187C58.5117 25.3956 58.5117 25.0338 58.73 24.8106L66.0848 17.2892L70.1113 20.9019C70.3433 21.11 70.3664 21.4711 70.1628 21.7083C69.9593 21.9455 69.6062 21.9691 69.3742 21.7609L66.1348 18.8544L59.5203 25.6187Z" fill="#737373"/>
<path d="M69.1841 12.0718H52.4194C51.8021 12.0718 51.3018 12.5835 51.3018 13.2146V26.9289C51.3018 27.5601 51.8021 28.0718 52.4194 28.0718H69.1841C69.8014 28.0718 70.3018 27.5601 70.3018 26.9289V13.2146C70.3018 12.5835 69.8014 12.0718 69.1841 12.0718ZM52.4191 26.9288V13.2145H69.1838V26.9288H52.4191ZM54.3752 16.7859C54.3752 17.9694 55.3134 18.9288 56.4708 18.9288C57.6281 18.9288 58.5664 17.9694 58.5664 16.7859C58.5664 15.6025 57.6281 14.6431 56.4708 14.6431C55.3134 14.6431 54.3752 15.6025 54.3752 16.7859ZM57.4484 16.7859C57.4484 17.3381 57.0105 17.7859 56.4704 17.7859C55.9303 17.7859 55.4925 17.3381 55.4925 16.7859C55.4925 16.2336 55.9303 15.7859 56.4704 15.7859C57.0105 15.7859 57.4484 16.2336 57.4484 16.7859ZM55.3275 25.6203C55.1083 25.8424 54.7545 25.8409 54.5372 25.6168C54.3199 25.3926 54.3214 25.0308 54.5406 24.8086L59.1367 20.1493L61.7272 22.4533C61.9601 22.6604 61.9847 23.0214 61.7821 23.2595C61.5796 23.4976 61.2266 23.5228 60.9937 23.3156L59.1864 21.7082L55.3275 25.6203ZM59.5203 25.6187C59.3021 25.8419 58.9482 25.8419 58.73 25.6187C58.5117 25.3956 58.5117 25.0338 58.73 24.8106L66.0848 17.2892L70.1113 20.9019C70.3433 21.11 70.3664 21.4711 70.1628 21.7083C69.9593 21.9455 69.6062 21.9691 69.3742 21.7609L66.1348 18.8544L59.5203 25.6187Z" fill="#737373"/>
</svg>
