<svg width="16" height="16" viewBox="0 0 16 16" fill="none" xmlns="http://www.w3.org/2000/svg">
<rect width="15.7812" height="15.7812" fill="#24585F"/>
<path d="M7.89079 9.86344L9.86344 7.89079M9.86344 7.89079L7.89079 5.91813M9.86344 7.89079H2.63037M5.91813 4.76649V4.73467C5.91813 3.99814 5.91813 3.6296 6.06147 3.34828C6.18755 3.10083 6.38859 2.89979 6.63604 2.77371C6.91736 2.63037 7.2859 2.63037 8.02243 2.63037H11.0472C11.7837 2.63037 12.1514 2.63037 12.4328 2.77371C12.6802 2.89979 12.8819 3.10083 13.008 3.34828C13.1512 3.62933 13.1512 3.99742 13.1512 4.73251V11.0494C13.1512 11.7845 13.1512 12.152 13.008 12.4331C12.8819 12.6805 12.6802 12.8819 12.4328 13.008C12.1517 13.1512 11.7842 13.1512 11.0491 13.1512H8.02027C7.28518 13.1512 6.91709 13.1512 6.63604 13.008C6.38859 12.8819 6.18755 12.6803 6.06147 12.4329C5.91813 12.1516 5.91813 11.7836 5.91813 11.047V11.0142" stroke="white" stroke-width="1.00177" stroke-linecap="round" stroke-linejoin="round"/>
</svg>
