<svg width="14" height="11" viewBox="0 0 14 11" fill="none" xmlns="http://www.w3.org/2000/svg">
<path d="M1.63021 1.94539L5.6463 4.9782L5.64764 4.97931C6.09357 5.30633 6.31667 5.46994 6.56103 5.53314C6.77702 5.589 7.00406 5.589 7.22004 5.53314C7.46462 5.46988 7.68837 5.3058 8.13509 4.9782C8.13509 4.9782 10.7111 3.00138 12.151 1.94539M0.972656 8.38953V3.39214C0.972656 2.65561 0.972656 2.28707 1.11599 2.00576C1.24208 1.7583 1.44312 1.55726 1.69057 1.43118C1.97189 1.28784 2.34042 1.28784 3.07695 1.28784H10.7046C11.4411 1.28784 11.8088 1.28784 12.0902 1.43118C12.3376 1.55726 12.5393 1.7583 12.6654 2.00576C12.8086 2.2868 12.8086 2.65489 12.8086 3.38998V8.39176C12.8086 9.12684 12.8086 9.49441 12.6654 9.77545C12.5393 10.0229 12.3376 10.2243 12.0902 10.3504C11.8091 10.4936 11.4415 10.4936 10.7065 10.4936H3.07479C2.3397 10.4936 1.97161 10.4936 1.69057 10.3504C1.44312 10.2243 1.24208 10.0229 1.11599 9.77545C0.972656 9.49413 0.972656 9.12606 0.972656 8.38953Z" stroke="white" stroke-width="1.00177" stroke-linecap="round" stroke-linejoin="round"/>
</svg>
