<svg width="13" height="13" viewBox="0 0 13 13" fill="none" xmlns="http://www.w3.org/2000/svg">
<path d="M3.09277 5.51091C3.09277 8.03926 5.25352 10.1301 6.20992 10.9317C6.3468 11.0464 6.41606 11.1045 6.51817 11.1339C6.59769 11.1568 6.71472 11.1568 6.79424 11.1339C6.89655 11.1044 6.96532 11.047 7.10271 10.9318C8.05912 10.1302 10.2197 8.03949 10.2197 5.51114C10.2197 4.55432 9.84433 3.63657 9.17604 2.95999C8.50775 2.28342 7.60142 1.90332 6.65632 1.90332C5.71122 1.90332 4.80479 2.28347 4.1365 2.96005C3.46821 3.63663 3.09277 4.55409 3.09277 5.51091Z" stroke="#5C5C5C" stroke-width="0.793907" stroke-linecap="round" stroke-linejoin="round"/>
<path d="M5.63814 5.03C5.63814 5.6056 6.09398 6.07223 6.65628 6.07223C7.21859 6.07223 7.67443 5.6056 7.67443 5.03C7.67443 4.45439 7.21859 3.98777 6.65628 3.98777C6.09398 3.98777 5.63814 4.45439 5.63814 5.03Z" stroke="#5C5C5C" stroke-width="0.793907" stroke-linecap="round" stroke-linejoin="round"/>
</svg>
