<svg width="16" height="15" viewBox="0 0 16 15" fill="none" xmlns="http://www.w3.org/2000/svg">
<path d="M3.4508 13.4467L4.60471 12.5235L4.6132 12.517C4.85376 12.3246 4.97515 12.2275 5.11059 12.1583C5.2321 12.0962 5.36167 12.051 5.49533 12.0235C5.64599 11.9926 5.80292 11.9926 6.11794 11.9926H12.691C13.5375 11.9926 13.9612 11.9926 14.2849 11.8277C14.5698 11.6825 14.8016 11.4506 14.9468 11.1657C15.1117 10.8421 15.1117 10.4188 15.1117 9.57236V3.81273C15.1117 2.96626 15.1117 2.5424 14.9468 2.21878C14.8016 1.93383 14.5693 1.70233 14.2844 1.55715C13.9604 1.39209 13.537 1.39209 12.6889 1.39209H3.90555C3.05743 1.39209 2.63305 1.39209 2.30911 1.55715C2.02416 1.70233 1.79266 1.93383 1.64748 2.21878C1.48242 2.54272 1.48242 2.9671 1.48242 3.81522V12.5008C1.48242 13.3078 1.48242 13.7112 1.64783 13.9184C1.79169 14.0986 2.00975 14.2034 2.24034 14.2032C2.50549 14.2029 2.82069 13.9508 3.4508 13.4467Z" stroke="white" stroke-width="1.15355" stroke-linecap="round" stroke-linejoin="round"/>
</svg>
