<svg width="19" height="19" viewBox="0 0 19 19" fill="none" xmlns="http://www.w3.org/2000/svg">
<rect width="18.1723" height="18.1723" transform="translate(0.710938 0.363281)" fill="#24585F"/>
<path d="M12.0687 13.2353V13.9925C12.0687 15.247 11.0517 16.264 9.7972 16.264C8.54266 16.264 7.52565 15.247 7.52565 13.9925V13.2353M12.0687 13.2353H7.52565M12.0687 13.2353H14.7874C15.077 13.2353 15.2226 13.2353 15.3398 13.1957C15.5639 13.1202 15.7391 12.9443 15.8147 12.7203C15.8544 12.6025 15.8544 12.4565 15.8544 12.1646C15.8544 12.0369 15.8543 11.973 15.8443 11.9121C15.8254 11.797 15.7807 11.6879 15.7127 11.5931C15.6768 11.5431 15.6311 11.4974 15.541 11.4073L15.2461 11.1124C15.1509 11.0172 15.0975 10.8881 15.0975 10.7536V7.93503C15.0975 5.00777 12.7245 2.63476 9.7972 2.63477C6.86994 2.63477 4.49693 5.00778 4.49693 7.93503V10.7536C4.49693 10.8882 4.44335 11.0172 4.34819 11.1124L4.05327 11.4073C3.96293 11.4976 3.91772 11.543 3.88172 11.5932C3.81369 11.6879 3.76863 11.797 3.74974 11.9121C3.73975 11.973 3.73975 12.0369 3.73975 12.1646C3.73975 12.4565 3.73975 12.6025 3.77946 12.7202C3.85503 12.9442 4.03111 13.1202 4.25513 13.1957C4.37242 13.2353 4.51738 13.2353 4.80703 13.2353H7.52565" stroke="white" stroke-width="1.15355" stroke-linecap="round" stroke-linejoin="round"/>
</svg>
