<svg width="16" height="16" viewBox="0 0 16 16" fill="none" xmlns="http://www.w3.org/2000/svg">
<path d="M6.24836 2.79934C6.04865 2.30005 5.56507 1.97266 5.02732 1.97266H3.21854C2.53046 1.97266 1.97266 2.53032 1.97266 3.21841C1.97266 9.06713 6.71412 13.8086 12.5628 13.8086C13.2509 13.8086 13.8086 13.2507 13.8086 12.5627L13.8089 10.7536C13.8089 10.2158 13.4816 9.73233 12.9823 9.53262L11.2487 8.83943C10.8002 8.66003 10.2896 8.74077 9.91848 9.05001L9.47106 9.42317C8.94854 9.8586 8.17971 9.82397 7.69875 9.34302L6.4389 8.08201C5.95794 7.60105 5.9224 6.83285 6.35784 6.31032L6.73092 5.86293C7.04016 5.49185 7.12161 4.98106 6.94221 4.53257L6.24836 2.79934Z" stroke="#5C5C5C" stroke-width="1.00177" stroke-linecap="round" stroke-linejoin="round"/>
</svg>
