<svg width="17" height="16" viewBox="0 0 17 16" fill="none" xmlns="http://www.w3.org/2000/svg">
<g clip-path="url(#clip0_54_3483)">
<path fill-rule="evenodd" clip-rule="evenodd" d="M2.34864 2.71245L3.13779 7.25004H8.00697C8.42118 7.25004 8.75697 7.58582 8.75697 8.00004C8.75697 8.41425 8.42118 8.75004 8.00697 8.75004H3.13779L2.34864 13.2876L14.6864 8.00004L2.34864 2.71245ZM1.74571 8.00004L0.820633 2.68087C0.745848 2.25086 0.88499 1.81135 1.19362 1.50272C1.5814 1.11494 2.16622 1.00231 2.67029 1.21834L16.0727 6.9622C16.4878 7.14013 16.757 7.54835 16.757 8.00004C16.757 8.45172 16.4878 8.85995 16.0727 9.03788L2.67029 14.7817C2.16622 14.9978 1.5814 14.8851 1.19362 14.4974C0.88499 14.1887 0.745848 13.7492 0.820633 13.3192L1.74571 8.00004Z" fill="#8E8E93"/>
</g>
<defs>
<clipPath id="clip0_54_3483">
<rect width="16" height="16" fill="white" transform="translate(0.756836)"/>
</clipPath>
</defs>
</svg>
