<svg width="14" height="14" viewBox="0 0 14 14" fill="none" xmlns="http://www.w3.org/2000/svg">
<path d="M4.91797 7.87695L8.86328 9.84961M8.86328 3.93164L4.91797 5.9043M10.8359 12.8086C9.74647 12.8086 8.86328 11.9254 8.86328 10.8359C8.86328 9.74647 9.74647 8.86328 10.8359 8.86328C11.9254 8.86328 12.8086 9.74647 12.8086 10.8359C12.8086 11.9254 11.9254 12.8086 10.8359 12.8086ZM2.94531 8.86328C1.85584 8.86328 0.972656 7.98009 0.972656 6.89063C0.972656 5.80116 1.85584 4.91797 2.94531 4.91797C4.03478 4.91797 4.91797 5.80116 4.91797 6.89063C4.91797 7.98009 4.03478 8.86328 2.94531 8.86328ZM10.8359 4.91797C9.74647 4.91797 8.86328 4.03478 8.86328 2.94531C8.86328 1.85584 9.74647 0.972656 10.8359 0.972656C11.9254 0.972656 12.8086 1.85584 12.8086 2.94531C12.8086 4.03478 11.9254 4.91797 10.8359 4.91797Z" stroke="#5C5C5C" stroke-width="1.00177" stroke-linecap="round" stroke-linejoin="round"/>
</svg>
