<svg width="12" height="13" viewBox="0 0 12 13" fill="none" xmlns="http://www.w3.org/2000/svg">
<path d="M4.63645 7.35671L8.06392 9.07044M8.06392 3.92924L4.63645 5.64297M9.77765 11.641C8.83118 11.641 8.06392 10.8738 8.06392 9.92731C8.06392 8.98084 8.83118 8.21357 9.77765 8.21357C10.7241 8.21357 11.4914 8.98084 11.4914 9.92731C11.4914 10.8738 10.7241 11.641 9.77765 11.641ZM2.92272 8.21357C1.97625 8.21357 1.20898 7.44631 1.20898 6.49984C1.20898 5.55337 1.97625 4.78611 2.92272 4.78611C3.86919 4.78611 4.63645 5.55337 4.63645 6.49984C4.63645 7.44631 3.86919 8.21357 2.92272 8.21357ZM9.77765 4.78611C8.83118 4.78611 8.06392 4.01884 8.06392 3.07238C8.06392 2.12591 8.83118 1.35864 9.77765 1.35864C10.7241 1.35864 11.4914 2.12591 11.4914 3.07238C11.4914 4.01884 10.7241 4.78611 9.77765 4.78611Z" stroke="white" stroke-width="0.870281" stroke-linecap="round" stroke-linejoin="round"/>
</svg>
