<svg width="14" height="12" viewBox="0 0 14 12" fill="none" xmlns="http://www.w3.org/2000/svg">
<path d="M0.972689 9.1786C0.972656 9.13613 0.972656 9.09234 0.972656 9.04717V2.73467C0.972656 1.99814 0.972656 1.6296 1.11599 1.34828C1.24208 1.10083 1.44312 0.899792 1.69057 0.773709C1.97189 0.630371 2.34042 0.630371 3.07695 0.630371H10.7046C11.4411 0.630371 11.8092 0.630371 12.0905 0.773709C12.3379 0.899792 12.5393 1.10083 12.6654 1.34828C12.8086 1.62933 12.8086 1.99742 12.8086 2.73251V9.04907C12.8086 9.36799 12.8086 9.61773 12.7969 9.82124M0.972689 9.1786C0.973196 9.82848 0.981448 10.1687 1.11599 10.4328C1.24208 10.6802 1.44312 10.8819 1.69057 11.008C1.97161 11.1512 2.3397 11.1512 3.07479 11.1512H10.7068C11.4419 11.1512 11.8094 11.1512 12.0905 11.008C12.3379 10.8819 12.5393 10.6802 12.6654 10.4328C12.7465 10.2736 12.7816 10.0868 12.7969 9.82124M0.972689 9.1786L4.10785 5.52091L4.10878 5.5199C4.38684 5.19549 4.52611 5.03301 4.69129 4.97445C4.83639 4.92301 4.99481 4.92421 5.13919 4.97766C5.30371 5.03858 5.44076 5.20291 5.71487 5.53183L7.4713 7.63955C7.72503 7.94403 7.85263 8.09715 8.00756 8.15861C8.14422 8.21281 8.29493 8.21892 8.43594 8.17731C8.59645 8.12994 8.73774 7.98867 9.02029 7.70612L9.34713 7.37927C9.63481 7.09159 9.77865 6.94786 9.94146 6.90087C10.0844 6.85961 10.2373 6.86847 10.3749 6.92528C10.5315 6.98995 10.6585 7.14827 10.9127 7.46596L12.7969 9.82124M12.7969 9.82124L12.8086 9.83584M8.86328 4.57568C8.50013 4.57568 8.20573 4.28129 8.20573 3.91813C8.20573 3.55498 8.50013 3.26058 8.86328 3.26058C9.22644 3.26058 9.52083 3.55498 9.52083 3.91813C9.52083 4.28129 9.22644 4.57568 8.86328 4.57568Z" stroke="white" stroke-width="1.00177" stroke-linecap="round" stroke-linejoin="round"/>
</svg>
