<svg width="21" height="20" viewBox="0 0 21 20" fill="none" xmlns="http://www.w3.org/2000/svg">
<path d="M17.2407 8.41411H17.1954V7.30403C17.1954 3.73814 14.3047 0.847412 10.7388 0.847412C7.17287 0.847412 4.28218 3.73814 4.28218 7.30403V8.41411H4.01034C3.01352 8.41411 2.24326 9.29763 2.24326 10.3171V13.149C2.21816 14.1371 2.99886 14.9585 3.98697 14.9836C3.99477 14.9838 4.00253 14.9839 4.01034 14.984H5.68678C5.92424 14.9729 6.1077 14.7713 6.09652 14.5338C6.09613 14.5253 6.09548 14.5167 6.09457 14.5082V8.9578C6.09457 8.68596 5.93599 8.41407 5.68678 8.41407H5.18837V7.30399C5.18837 4.23859 7.6734 1.75356 10.7388 1.75356C13.8042 1.75356 16.2892 4.23859 16.2892 7.30399V8.41407H15.7908C15.5416 8.41407 15.383 8.68591 15.383 8.9578V14.5082C15.3577 14.7446 15.5289 14.9567 15.7652 14.982C15.7737 14.9829 15.7823 14.9836 15.7908 14.984H16.3119L16.2665 15.0519C15.5867 15.9554 14.52 16.4845 13.3894 16.4791C13.1419 15.2655 11.9573 14.4822 10.7436 14.7298C9.70572 14.9414 8.95741 15.8504 8.94904 16.9096C8.96145 18.1519 9.97214 19.1525 11.2145 19.1524C11.8295 19.1424 12.4158 18.8901 12.8457 18.4501C13.1357 18.1531 13.3258 17.7729 13.3894 17.3627C14.8053 17.368 16.1405 16.7046 16.9915 15.5729L17.4219 14.9386C18.3961 14.8706 19.0078 14.259 19.0078 13.3754V10.5436C19.0078 9.56951 18.2829 8.41411 17.2407 8.41411ZM5.18837 14.0778H4.01034C3.52251 14.0659 3.13667 13.6609 3.14855 13.173C3.14876 13.165 3.14907 13.157 3.14946 13.1489V10.3171C3.14946 9.79604 3.51193 9.32027 4.01034 9.32027H5.18837V14.0778ZM12.1887 17.8158C11.9376 18.0881 11.5849 18.244 11.2146 18.2463C10.4775 18.2346 9.87935 17.6464 9.85528 16.9096C9.85498 16.1714 10.4532 15.5728 11.1914 15.5725C11.9296 15.5722 12.5282 16.1704 12.5285 16.9086C12.5285 16.9089 12.5285 16.9093 12.5285 16.9096C12.5474 17.246 12.4241 17.5748 12.1887 17.8158ZM18.1016 13.3755C18.1016 13.9872 17.5126 14.0778 17.2407 14.0778H16.2892V9.32031H17.2407C17.7391 9.32031 18.1016 10.0226 18.1016 10.5437V13.3755Z" fill="#84818A"/>
</svg>
