<svg width="16" height="11" viewBox="0 0 16 11" fill="none" xmlns="http://www.w3.org/2000/svg">
<path d="M14.9118 5.00571C13.1367 2.86068 10.4497 0.795898 7.64187 0.795898C4.8335 0.795898 2.14588 2.86212 0.37198 5.00571C0.0651344 5.37635 0.0651344 5.91441 0.37198 6.28505C0.817959 6.82398 1.75293 7.86431 3.00167 8.7733C6.14659 11.0627 9.13023 11.0678 12.2821 8.7733C13.5308 7.86431 14.4658 6.82398 14.9118 6.28505C15.2177 5.91513 15.2193 5.37756 14.9118 5.00571ZM7.64187 2.41239C9.42464 2.41239 10.8749 3.86262 10.8749 5.64538C10.8749 7.42814 9.42464 8.87837 7.64187 8.87837C5.85911 8.87837 4.40889 7.42814 4.40889 5.64538C4.40889 3.86262 5.85911 2.41239 7.64187 2.41239Z" fill="#515151"/>
</svg>
